<svg width="16" height="16" viewBox="0 0 16 16" fill="none" xmlns="http://www.w3.org/2000/svg">
<path d="M12.667 7.33287H4.76033L7.18033 4.4262C7.29348 4.29005 7.34793 4.11453 7.33167 3.93825C7.31542 3.76197 7.2298 3.59936 7.09366 3.4862C6.95751 3.37304 6.78199 3.3186 6.60571 3.33485C6.42943 3.35111 6.26682 3.43672 6.15366 3.57287L2.82033 7.57287C2.7979 7.60468 2.77785 7.63811 2.76033 7.67287C2.76033 7.7062 2.76033 7.7262 2.71366 7.75953C2.68344 7.83597 2.66762 7.91734 2.66699 7.99953C2.66762 8.08173 2.68344 8.16309 2.71366 8.23953C2.71366 8.27287 2.71366 8.29287 2.76033 8.3262C2.77785 8.36096 2.7979 8.39438 2.82033 8.4262L6.15366 12.4262C6.21634 12.5015 6.29483 12.562 6.38356 12.6035C6.47228 12.6449 6.56905 12.6664 6.66699 12.6662C6.82276 12.6665 6.97372 12.6123 7.09366 12.5129C7.16116 12.4569 7.21697 12.3882 7.25787 12.3106C7.29877 12.233 7.32397 12.1482 7.33202 12.0608C7.34007 11.9735 7.33081 11.8855 7.30478 11.8017C7.27875 11.718 7.23646 11.6402 7.18033 11.5729L4.76033 8.6662H12.667C12.8438 8.6662 13.0134 8.59596 13.1384 8.47094C13.2634 8.34591 13.3337 8.17634 13.3337 7.99953C13.3337 7.82272 13.2634 7.65315 13.1384 7.52813C13.0134 7.4031 12.8438 7.33287 12.667 7.33287Z" fill="#231F20"/>
</svg>
