<svg width="17" height="18" viewBox="0 0 17 18" fill="none" xmlns="http://www.w3.org/2000/svg">
<path d="M15.4905 8.27076C15.0372 7.48451 12.5438 3.5391 8.30798 3.6666C4.3909 3.76576 2.12423 7.20826 1.50798 8.27076C1.44582 8.37844 1.41309 8.50059 1.41309 8.62493C1.41309 8.74927 1.44582 8.87142 1.50798 8.9791C1.95423 9.75118 4.34132 13.5833 8.5134 13.5833H8.69049C12.6076 13.4841 14.8813 10.0416 15.4905 8.9791C15.5527 8.87142 15.5854 8.74927 15.5854 8.62493C15.5854 8.50059 15.5527 8.37844 15.4905 8.27076ZM8.65507 12.1666C5.60215 12.2374 3.61173 9.62368 2.9884 8.62493C3.69673 7.48451 5.54549 5.1541 8.37882 5.08326C11.4176 5.00535 13.4151 7.62618 14.0455 8.62493C13.3159 9.76535 11.4884 12.0958 8.65507 12.1666Z" fill="#231F20"/>
<path d="M8.49968 6.146C8.00934 6.146 7.53002 6.2914 7.12232 6.56381C6.71463 6.83623 6.39687 7.22342 6.20922 7.67643C6.02158 8.12944 5.97249 8.62791 6.06815 9.10882C6.1638 9.58974 6.39992 10.0315 6.74664 10.3782C7.09336 10.7249 7.5351 10.961 8.01601 11.0567C8.49693 11.1524 8.9954 11.1033 9.44841 10.9156C9.90142 10.728 10.2886 10.4102 10.561 10.0025C10.8334 9.59482 10.9788 9.1155 10.9788 8.62516C10.9788 7.96765 10.7176 7.33706 10.2527 6.87213C9.78778 6.40719 9.15719 6.146 8.49968 6.146ZM8.49968 9.68766C8.28953 9.68766 8.08411 9.62535 7.90938 9.5086C7.73466 9.39185 7.59847 9.22591 7.51805 9.03176C7.43764 8.83762 7.41659 8.62398 7.45759 8.41788C7.49859 8.21177 7.59978 8.02246 7.74837 7.87386C7.89697 7.72527 8.08629 7.62408 8.29239 7.58308C8.4985 7.54208 8.71213 7.56312 8.90628 7.64354C9.10042 7.72396 9.26636 7.86014 9.38311 8.03487C9.49986 8.2096 9.56218 8.41502 9.56218 8.62516C9.56218 8.90696 9.45023 9.17721 9.25098 9.37646C9.05172 9.57572 8.78147 9.68766 8.49968 9.68766Z" fill="#231F20"/>
</svg>
