<svg width="12" height="14" viewBox="0 0 12 14" fill="none" xmlns="http://www.w3.org/2000/svg">
<path d="M4.66602 8.33496H7.33268V13.0016H4.66602V8.33496Z" fill="#231F20"/>
<path d="M11.6134 5.78794L6.47341 0.534601C6.41144 0.472116 6.3377 0.422519 6.25646 0.388674C6.17522 0.354828 6.08809 0.337402 6.00008 0.337402C5.91207 0.337402 5.82493 0.354828 5.74369 0.388674C5.66245 0.422519 5.58872 0.472116 5.52674 0.534601L0.386744 5.7946C0.262368 5.91998 0.16414 6.06882 0.0977623 6.23247C0.0313846 6.39613 -0.00181985 6.57134 7.69095e-05 6.74794V12.3346C-0.00043964 12.6759 0.129926 13.0044 0.364327 13.2524C0.598728 13.5004 0.919318 13.6492 1.26008 13.6679H3.33341V7.66794C3.33341 7.49112 3.40365 7.32156 3.52867 7.19653C3.6537 7.07151 3.82327 7.00127 4.00008 7.00127H8.00008C8.17689 7.00127 8.34646 7.07151 8.47148 7.19653C8.59651 7.32156 8.66675 7.49112 8.66675 7.66794V13.6679H10.7401C11.0808 13.6492 11.4014 13.5004 11.6358 13.2524C11.8702 13.0044 12.0006 12.6759 12.0001 12.3346V6.74794C12.0006 6.38989 11.862 6.04566 11.6134 5.78794Z" fill="#231F20"/>
</svg>
