<svg width="16" height="16" viewBox="0 0 16 16" fill="none" xmlns="http://www.w3.org/2000/svg">
<path d="M8.96855 10.3962C8.94506 10.3729 8.91334 10.3599 8.88027 10.3599C8.84721 10.3599 8.81549 10.3729 8.79199 10.3962L6.97637 12.2118C6.13574 13.0524 4.71699 13.1415 3.78887 12.2118C2.85918 11.2821 2.94824 9.86494 3.78887 9.02432L5.60449 7.20869C5.65293 7.16025 5.65293 7.08057 5.60449 7.03213L4.98262 6.41025C4.95912 6.38699 4.9274 6.37394 4.89434 6.37394C4.86127 6.37394 4.82955 6.38699 4.80605 6.41025L2.99043 8.22588C1.66855 9.54776 1.66855 11.6868 2.99043 13.0071C4.3123 14.3274 6.45137 14.329 7.77168 13.0071L9.5873 11.1915C9.63574 11.1431 9.63574 11.0634 9.5873 11.0149L8.96855 10.3962ZM13.0092 2.98994C11.6873 1.66807 9.54824 1.66807 8.22793 2.98994L6.41074 4.80557C6.38748 4.82906 6.37443 4.86079 6.37443 4.89385C6.37443 4.92691 6.38748 4.95864 6.41074 4.98213L7.03105 5.60244C7.07949 5.65088 7.15918 5.65088 7.20762 5.60244L9.02324 3.78682C9.86387 2.94619 11.2826 2.85713 12.2107 3.78682C13.1404 4.7165 13.0514 6.13369 12.2107 6.97432L10.3951 8.78994C10.3719 8.81344 10.3588 8.84516 10.3588 8.87822C10.3588 8.91129 10.3719 8.94301 10.3951 8.96651L11.017 9.58838C11.0654 9.63682 11.1451 9.63682 11.1936 9.58838L13.0092 7.77275C14.3295 6.45088 14.3295 4.31182 13.0092 2.98994ZM9.53262 5.8165C9.50912 5.79324 9.4774 5.78019 9.44434 5.78019C9.41127 5.78019 9.37955 5.79324 9.35605 5.8165L5.81699 9.35401C5.79373 9.3775 5.78068 9.40922 5.78068 9.44229C5.78068 9.47535 5.79373 9.50707 5.81699 9.53057L6.43574 10.1493C6.48418 10.1978 6.56387 10.1978 6.61231 10.1493L10.1498 6.61182C10.1982 6.56338 10.1982 6.48369 10.1498 6.43525L9.53262 5.8165Z" fill="black"/>
</svg>
