<svg width="19" height="30" viewBox="0 0 19 30" fill="none" xmlns="http://www.w3.org/2000/svg">
<path d="M17.7398 14.1697L4.10516 1.21719C3.7898 0.917369 3.36884 0.752197 2.91998 0.752197C2.47111 0.752197 2.05014 0.917369 1.73479 1.21719L0.730689 2.17083C0.0773161 2.79224 0.0773161 3.8022 0.730689 4.42266L12.18 15.2994L0.717985 26.1882C0.402632 26.488 0.228516 26.8877 0.228516 27.3139C0.228516 27.7405 0.402632 28.1402 0.717985 28.4404L1.72208 29.3937C2.03768 29.6935 2.45839 29.8586 2.90727 29.8586C3.35614 29.8586 3.77711 29.6935 4.09245 29.3937L17.7398 16.4293C18.0559 16.1286 18.2295 15.727 18.2285 15.3001C18.2295 14.8716 18.0559 14.4702 17.7398 14.1697Z" fill="#9665FC"/>
</svg>
