<svg width="17" height="16" viewBox="0 0 17 16" fill="none" xmlns="http://www.w3.org/2000/svg">
<g filter="url(#filter0_d_839_51)">
<path d="M11.652 10.5573C11.3477 9.83669 10.9063 9.18214 10.3521 8.6301C9.79964 8.07646 9.14519 7.63505 8.4249 7.33024C8.41845 7.32702 8.412 7.3254 8.40555 7.32218C9.41028 6.59645 10.0634 5.41433 10.0634 4.08061C10.0634 1.87118 8.27331 0.0810547 6.06388 0.0810547C3.85445 0.0810547 2.06433 1.87118 2.06433 4.08061C2.06433 5.41433 2.71748 6.59645 3.7222 7.32379C3.71575 7.32702 3.7093 7.32863 3.70285 7.33185C2.98035 7.63666 2.33204 8.07371 1.77565 8.63171C1.22202 9.18418 0.780605 9.83862 0.475793 10.5589C0.176347 11.2641 0.0148482 12.0201 4.03277e-05 12.7861C-0.000390116 12.8033 0.00262894 12.8204 0.0089197 12.8364C0.0152105 12.8525 0.0246456 12.8671 0.0366691 12.8794C0.0486927 12.8917 0.0630614 12.9015 0.0789285 12.9082C0.0947957 12.9149 0.11184 12.9183 0.129058 12.9183H1.09669C1.16765 12.9183 1.2241 12.8619 1.22571 12.7925C1.25796 11.5475 1.75791 10.3815 2.64168 9.49774C3.55609 8.58333 4.77047 8.08016 6.06388 8.08016C7.35728 8.08016 8.57166 8.58333 9.48607 9.49774C10.3698 10.3815 10.8698 11.5475 10.902 12.7925C10.9037 12.8635 10.9601 12.9183 11.0311 12.9183H11.9987C12.0159 12.9183 12.033 12.9149 12.0488 12.9082C12.0647 12.9015 12.0791 12.8917 12.0911 12.8794C12.1031 12.8671 12.1125 12.8525 12.1188 12.8364C12.1251 12.8204 12.1281 12.8033 12.1277 12.7861C12.1116 12.0152 11.9519 11.2653 11.652 10.5573ZM6.06388 6.85449C5.32364 6.85449 4.62694 6.56581 4.10281 6.04168C3.57867 5.51754 3.28999 4.82085 3.28999 4.08061C3.28999 3.34037 3.57867 2.64367 4.10281 2.11954C4.62694 1.5954 5.32364 1.30672 6.06388 1.30672C6.80412 1.30672 7.50081 1.5954 8.02495 2.11954C8.54908 2.64367 8.83776 3.34037 8.83776 4.08061C8.83776 4.82085 8.54908 5.51754 8.02495 6.04168C7.50081 6.56581 6.80412 6.85449 6.06388 6.85449Z" fill="black"/>
<path d="M11.652 10.5573C11.3477 9.83669 10.9063 9.18214 10.3521 8.6301C9.79964 8.07646 9.14519 7.63505 8.4249 7.33024C8.41845 7.32702 8.412 7.3254 8.40555 7.32218C9.41028 6.59645 10.0634 5.41433 10.0634 4.08061C10.0634 1.87118 8.27331 0.0810547 6.06388 0.0810547C3.85445 0.0810547 2.06433 1.87118 2.06433 4.08061C2.06433 5.41433 2.71748 6.59645 3.7222 7.32379C3.71575 7.32702 3.7093 7.32863 3.70285 7.33185C2.98035 7.63666 2.33204 8.07371 1.77565 8.63171C1.22202 9.18418 0.780605 9.83862 0.475793 10.5589C0.176347 11.2641 0.0148482 12.0201 4.03277e-05 12.7861C-0.000390116 12.8033 0.00262894 12.8204 0.0089197 12.8364C0.0152105 12.8525 0.0246456 12.8671 0.0366691 12.8794C0.0486927 12.8917 0.0630614 12.9015 0.0789285 12.9082C0.0947957 12.9149 0.11184 12.9183 0.129058 12.9183H1.09669C1.16765 12.9183 1.2241 12.8619 1.22571 12.7925C1.25796 11.5475 1.75791 10.3815 2.64168 9.49774C3.55609 8.58333 4.77047 8.08016 6.06388 8.08016C7.35728 8.08016 8.57166 8.58333 9.48607 9.49774C10.3698 10.3815 10.8698 11.5475 10.902 12.7925C10.9037 12.8635 10.9601 12.9183 11.0311 12.9183H11.9987C12.0159 12.9183 12.033 12.9149 12.0488 12.9082C12.0647 12.9015 12.0791 12.8917 12.0911 12.8794C12.1031 12.8671 12.1125 12.8525 12.1188 12.8364C12.1251 12.8204 12.1281 12.8033 12.1277 12.7861C12.1116 12.0152 11.9519 11.2653 11.652 10.5573ZM6.06388 6.85449C5.32364 6.85449 4.62694 6.56581 4.10281 6.04168C3.57867 5.51754 3.28999 4.82085 3.28999 4.08061C3.28999 3.34037 3.57867 2.64367 4.10281 2.11954C4.62694 1.5954 5.32364 1.30672 6.06388 1.30672C6.80412 1.30672 7.50081 1.5954 8.02495 2.11954C8.54908 2.64367 8.83776 3.34037 8.83776 4.08061C8.83776 4.82085 8.54908 5.51754 8.02495 6.04168C7.50081 6.56581 6.80412 6.85449 6.06388 6.85449Z" stroke="black"/>
</g>
<defs>
<filter id="filter0_d_839_51" x="-4" y="0.0810547" width="20.1277" height="20.8374" filterUnits="userSpaceOnUse" color-interpolation-filters="sRGB">
<feFlood flood-opacity="0" result="BackgroundImageFix"/>
<feColorMatrix in="SourceAlpha" type="matrix" values="0 0 0 0 0 0 0 0 0 0 0 0 0 0 0 0 0 0 127 0" result="hardAlpha"/>
<feOffset dy="4"/>
<feGaussianBlur stdDeviation="2"/>
<feComposite in2="hardAlpha" operator="out"/>
<feColorMatrix type="matrix" values="0 0 0 0 0 0 0 0 0 0 0 0 0 0 0 0 0 0 0.25 0"/>
<feBlend mode="normal" in2="BackgroundImageFix" result="effect1_dropShadow_839_51"/>
<feBlend mode="normal" in="SourceGraphic" in2="effect1_dropShadow_839_51" result="shape"/>
</filter>
</defs>
</svg>
