<svg width="12" height="13" viewBox="0 0 12 13" fill="none" xmlns="http://www.w3.org/2000/svg">
<g clip-path="url(#clip0_1313_2106)">
<path fill-rule="evenodd" clip-rule="evenodd" d="M9.44129 7.25146L5.47162 11.2211C5.17873 11.514 5.17873 11.9889 5.47162 12.2818C5.76451 12.5747 6.23939 12.5747 6.53228 12.2818L11.777 7.0371C12.0728 6.74126 12.0728 6.26163 11.777 5.96583L6.53228 0.721135C6.23939 0.428242 5.76451 0.428242 5.47162 0.721135C5.17873 1.01403 5.17873 1.4889 5.47162 1.78179L9.44129 5.75146H0.705078C0.316753 5.75146 0.00195315 6.08725 0.00195313 6.50146C0.00195311 6.91568 0.316753 7.25146 0.705078 7.25146H9.44129Z" fill="white"/>
</g>
<defs>
<clipPath id="clip0_1313_2106">
<rect width="12" height="12" fill="white" transform="translate(0 0.5)"/>
</clipPath>
</defs>
</svg>
