<svg width="169" height="105" viewBox="0 0 169 105" fill="none" xmlns="http://www.w3.org/2000/svg">
<g filter="url(#filter0_d_839_79)">
<path d="M157.897 22.3994H22.1028V74.6061H157.897V22.3994Z" fill="white"/>
<path d="M138.533 31.3279L138.39 31.8283H137.587L136.939 33.9191H136.214L136.849 31.8283H136.059L136.214 31.3279H138.533Z" fill="black"/>
<path d="M142.108 31.3279L141.317 33.9191H140.579L141.058 32.3621L139.905 33.9191H139.322L139.115 32.3621L138.636 33.9191H137.91L138.7 31.3279H139.568L139.866 33.1184L141.253 31.3279H142.108Z" fill="black"/>
<path d="M80.6567 62.1551H78.8178L79.0687 61.3716C78.1246 62.1046 77.3841 62.3672 76.2543 62.3672C75.2863 62.39 74.3437 62.1015 73.6104 61.5584C72.837 60.9479 72.4979 60.0903 72.5684 58.9334C72.6394 57.6638 73.1639 56.4439 74.0707 55.4394C75.1578 54.2625 76.6287 53.6482 78.4534 53.6482C79.9303 53.6482 81.0917 54.0704 81.726 54.8422C82.145 55.3465 82.2883 55.836 82.2548 56.6194H80.0533V56.4327C80.0848 55.6627 79.3936 55.1397 78.3496 55.1397C77.8024 55.1514 77.2679 55.285 76.7991 55.5268C76.3297 55.7687 75.9418 56.1108 75.6724 56.5203C75.1856 57.2284 74.899 58.025 74.836 58.8461C74.7594 60.0787 75.566 60.8741 76.898 60.8741C77.2975 60.8764 77.6923 60.7989 78.0513 60.6477C78.4102 60.4965 78.7234 60.2758 78.9662 60.0033C79.2329 59.7099 79.4196 59.3685 79.5104 59.0046H77.4736L77.9574 57.4744H82.0998L80.6561 62.1561L80.6567 62.1551Z" fill="black"/>
<path d="M84.7806 60.5625H89.0243L88.5208 62.1548H82.0168L84.5803 53.8579H86.8406L84.7806 60.5619V60.5625Z" fill="black"/>
<path d="M99.8129 57.304C99.7122 58.4899 99.2261 59.6275 98.4108 60.5881C97.3964 61.765 95.8824 62.367 93.9415 62.367C91.1308 62.367 89.5193 61.022 89.6563 58.7837C89.7386 57.4387 90.389 56.0362 91.3563 55.1144C92.3237 54.1932 93.8079 53.6479 95.4691 53.6479C98.399 53.6479 99.9556 54.9681 99.8129 57.304ZM92.8933 56.2851C92.3249 57.0372 91.9926 57.9028 91.9277 58.7974C91.8511 60.0789 92.6559 60.8739 94.0465 60.8739C94.5913 60.8824 95.1288 60.7648 95.6012 60.5324C96.0745 60.3001 96.4655 59.9627 96.7336 59.5555C97.1963 58.8664 97.4712 58.0968 97.5384 57.304C97.625 55.8746 96.9022 55.14 95.3961 55.14C94.8996 55.1289 94.4073 55.2286 93.9687 55.4291C93.5301 55.6295 93.1594 55.9249 92.8933 56.2851Z" fill="black"/>
<path d="M102.137 53.8579H105.803C106.96 53.8579 107.706 53.9957 108.251 54.3065C108.54 54.4842 108.771 54.723 108.922 54.9993C109.073 55.2757 109.138 55.5811 109.11 55.8856C109.052 56.8556 108.37 57.5769 107.207 57.9032C108.073 58.189 108.449 58.6748 108.402 59.4332C108.372 59.8528 108.233 60.2618 107.996 60.6298C107.759 60.9979 107.429 61.3156 107.031 61.5607C106.281 62.0077 105.464 62.1579 103.852 62.1579H99.5654L102.137 53.8579ZM104.095 60.5619C105.37 60.5619 106.089 60.1768 106.132 59.4555C106.167 58.8955 105.74 58.6468 104.734 58.6468H102.836L102.248 60.5619H104.095ZM104.953 57.1786C105.78 57.1786 106.16 57.1167 106.49 56.9061C106.629 56.8266 106.743 56.7194 106.824 56.5937C106.905 56.4684 106.95 56.328 106.955 56.1848C106.988 55.6484 106.608 55.4495 105.507 55.4495H103.813L103.288 57.1781H104.953V57.1786Z" fill="black"/>
<path d="M111.208 60.4633L110.09 62.1548H107.712L113.478 53.8579H115.809L116.678 62.1548H114.492L114.377 60.4633H111.208ZM114.175 57.2047L114.136 55.9486L114.038 56.1169L113.842 56.4399C113.678 56.739 113.584 56.8636 113.361 57.2115L112.226 58.9401H114.253L114.175 57.2047Z" fill="black"/>
<path d="M119.748 60.5625H123.992L123.49 62.1548H116.986L119.55 53.8579H121.814L119.748 60.5619V60.5625Z" fill="black"/>
<path d="M133.66 33.8289H98.82L92.9079 44.7696L91.9936 33.8289H86.6966L80.0711 44.8667L80.0117 33.8289H74.8284L75.7692 50.8531H81.6611L88.1545 40.1547L88.7994 50.8531H94.3516L102.484 37.4524H103.764L99.7331 50.8531H104.734L106.028 46.573H110.176C115.388 46.573 117.988 43.4601 118.718 40.517C119.018 39.3029 118.968 38.2942 118.687 37.4524H122.006L117.975 50.8531H122.975L127.029 37.4524H132.579L133.66 33.8289ZM113.704 40.3223C113.282 41.8791 111.981 42.9006 109.885 42.925H107.132L108.788 37.453H111.262C113.443 37.453 114.07 39.0097 113.704 40.3228V40.3223Z" fill="black"/>
<path d="M41.9339 60.5077C41.6955 61.3463 42.4348 62.1546 43.4399 62.1546H59.9622C61.3915 62.1546 62.6356 61.316 62.9743 60.1238L69.2472 39.2706C69.4855 38.4321 68.7461 37.6238 67.741 37.6238H51.2189C49.7894 37.6238 48.5454 38.4623 48.2069 39.6546L41.9339 60.5077Z" fill="#F3004E"/>
<path d="M37.5135 56.7128C37.275 57.5514 38.0145 58.3597 39.0195 58.3597H55.5417C56.9712 58.3597 58.2153 57.5211 58.5538 56.3289L64.8273 35.4757C65.0658 34.6372 64.3264 33.8289 63.3214 33.8289H46.7984C45.3691 33.8289 44.1251 34.6674 43.7864 35.8597L37.5135 56.7128Z" fill="#005EDA"/>
<path d="M58.5546 56.3289L64.1814 37.6238H51.2191C49.7898 37.6238 48.5456 38.4623 48.2071 39.6546L42.5803 58.3597H55.5432C56.9725 58.3597 58.2168 57.5206 58.5552 56.3289H58.5546Z" fill="white"/>
<path d="M50.9702 50.5227C50.3816 50.5413 49.2592 50.196 49.5952 48.9708C49.9147 47.8071 51.9883 46.4229 53.5677 45.3685C53.7623 45.2385 53.949 45.1139 54.1243 44.9956L54.2449 44.9409L54.3357 44.9956C54.4455 45.1144 54.5641 45.239 54.6871 45.3685C55.6878 46.4229 57.0017 47.8065 56.6823 48.9708C56.3463 50.196 55.0343 50.5413 54.4555 50.5227C53.9384 50.5063 53.2811 50.3864 52.892 49.8692C52.2187 50.3864 51.496 50.5063 50.9696 50.5227H50.9702Z" fill="black"/>
</g>
<defs>
<filter id="filter0_d_839_79" x="0.102783" y="0.399414" width="187.795" height="104.207" filterUnits="userSpaceOnUse" color-interpolation-filters="sRGB">
<feFlood flood-opacity="0" result="BackgroundImageFix"/>
<feColorMatrix in="SourceAlpha" type="matrix" values="0 0 0 0 0 0 0 0 0 0 0 0 0 0 0 0 0 0 127 0" result="hardAlpha"/>
<feMorphology radius="4" operator="dilate" in="SourceAlpha" result="effect1_dropShadow_839_79"/>
<feOffset dx="4" dy="4"/>
<feGaussianBlur stdDeviation="11"/>
<feComposite in2="hardAlpha" operator="out"/>
<feColorMatrix type="matrix" values="0 0 0 0 0 0 0 0 0 0 0 0 0 0 0 0 0 0 0.05 0"/>
<feBlend mode="normal" in2="BackgroundImageFix" result="effect1_dropShadow_839_79"/>
<feBlend mode="normal" in="SourceGraphic" in2="effect1_dropShadow_839_79" result="shape"/>
</filter>
</defs>
</svg>
